<svg width="291" height="137" viewBox="0 0 291 137" fill="none" xmlns="http://www.w3.org/2000/svg">
<path d="M93 0L0 136.5C21.2 136.5 34.5 129.5 38.5 126L120 0H93Z" fill="url(#paint0_linear_3_19)"/>
<path d="M170 0L77 136.5C98.2 136.5 111.5 129.5 115.5 126L197 0H170Z" fill="url(#paint1_linear_3_19)"/>
<path d="M198 0L291 136.5C269.8 136.5 256.5 129.5 252.5 126L171 0H198Z" fill="url(#paint2_linear_3_19)"/>
<path d="M290 136C174 -7.60001 49 76.1667 1 136H37C132.6 35.2 224.167 94 258 136H290Z" fill="url(#paint3_linear_3_19)"/>
<path d="M121 0L214 136.5C192.8 136.5 179.5 129.5 175.5 126L94 0H121Z" fill="url(#paint4_linear_3_19)"/>
<defs>
<linearGradient id="paint0_linear_3_19" x1="1.37663e-05" y1="137" x2="120" y2="-2.99999" gradientUnits="userSpaceOnUse">
<stop offset="0.921875" stop-color="#0E99F6"/>
<stop offset="0.984375" stop-color="#0E99F6" stop-opacity="0"/>
</linearGradient>
<linearGradient id="paint1_linear_3_19" x1="88.5" y1="178.5" x2="208.5" y2="-19.5" gradientUnits="userSpaceOnUse">
<stop offset="0.046875" stop-color="#0E9AF7"/>
<stop offset="0.921875" stop-color="#79C7FA"/>
<stop offset="1" stop-color="#79C7FA" stop-opacity="0"/>
</linearGradient>
<linearGradient id="paint2_linear_3_19" x1="178" y1="-26" x2="316" y2="142" gradientUnits="userSpaceOnUse">
<stop offset="0.59375" stop-color="#68C0FA"/>
<stop offset="0.9999" stop-color="#7AC7FA"/>
<stop offset="1" stop-color="#68C0FA" stop-opacity="0"/>
</linearGradient>
<linearGradient id="paint3_linear_3_19" x1="65" y1="45" x2="337.5" y2="160.5" gradientUnits="userSpaceOnUse">
<stop offset="0.161458" stop-color="#0E99F6"/>
<stop offset="0.713542" stop-color="#79C7FA"/>
<stop offset="1" stop-color="#0E99F6" stop-opacity="0"/>
</linearGradient>
<linearGradient id="paint4_linear_3_19" x1="130" y1="-1.22488e-06" x2="220" y2="137" gradientUnits="userSpaceOnUse">
<stop stop-color="#0E9AF7"/>
<stop offset="0.994792" stop-color="#79C7FA"/>
</linearGradient>
</defs>
</svg>
